<svg width="180" height="57" viewBox="0 0 180 57" fill="none" xmlns="http://www.w3.org/2000/svg">
<g clip-path="url(#clip0)">
<path d="M149.122 56.242L147.561 50.1326H148.395L149.122 53.223C149.305 53.9856 149.466 54.7437 149.568 55.3368C149.666 54.7258 149.858 53.9989 150.068 53.2141L150.879 50.1326H151.704L152.449 53.2319C152.623 53.9588 152.783 54.6812 152.895 55.3278C153.02 54.6545 153.194 53.99 153.381 53.2141L154.188 50.1326H154.995L153.265 56.242H152.467L151.695 53.058C151.527 52.4013 151.394 51.7358 151.298 51.0647C151.176 51.737 151.018 52.4023 150.826 53.058L149.956 56.242H149.122Z" fill="#EA1B3D"/>
<path d="M163.731 53.1249C163.731 55.2253 162.456 56.3402 160.895 56.3402C159.334 56.3402 158.152 55.0915 158.152 53.2409C158.152 51.301 159.356 50.0346 160.989 50.0346C162.621 50.0346 163.731 51.31 163.731 53.1249ZM158.991 53.223C158.991 54.5296 159.7 55.698 160.94 55.698C162.179 55.698 162.897 54.5475 162.897 53.1606C162.897 51.9432 162.264 50.6767 160.953 50.6767C159.642 50.6767 158.991 51.8808 158.991 53.223Z" fill="#EA1B3D"/>
<path d="M168.476 56.242L166.924 50.1326H167.758L168.485 53.223C168.663 53.9856 168.828 54.7437 168.931 55.3368C169.033 54.7258 169.221 53.9989 169.43 53.2141L170.246 50.1326H171.071L171.816 53.2319C171.985 53.9588 172.15 54.6812 172.24 55.3278C172.369 54.6545 172.538 53.99 172.73 53.2141L173.537 50.1326H174.344L172.614 56.242H171.789L171.018 53.058C170.848 52.4013 170.714 51.7359 170.616 51.0647C170.498 51.7374 170.342 52.4029 170.148 53.058L169.279 56.242H168.476Z" fill="#EA1B3D"/>
<path d="M177.685 55.7782C177.68 55.7056 177.691 55.6328 177.716 55.5645C177.741 55.4962 177.78 55.4337 177.83 55.381C177.88 55.3283 177.941 55.2865 178.008 55.2582C178.075 55.2299 178.147 55.2156 178.22 55.2164C178.369 55.2164 178.512 55.2756 178.617 55.3809C178.722 55.4863 178.782 55.6292 178.782 55.7782C178.782 55.9273 178.722 56.0702 178.617 56.1756C178.512 56.2809 178.369 56.3401 178.22 56.3401C178.147 56.3409 178.075 56.3266 178.008 56.2983C177.941 56.27 177.88 56.2282 177.83 56.1755C177.78 56.1228 177.741 56.0603 177.716 55.992C177.691 55.9236 177.68 55.8509 177.685 55.7782ZM177.912 54.485L177.783 50.1326H178.675L178.55 54.485H177.912Z" fill="#EA1B3D"/>
<path d="M44.0543 28.0407C44.3085 27.898 45.6552 27.0329 46.9574 26.3016C47.1227 26.2211 47.304 26.1789 47.4879 26.1783C47.6717 26.1776 47.8534 26.2184 48.0193 26.2977C48.1852 26.377 48.331 26.4928 48.446 26.6363C48.5609 26.7798 48.642 26.9474 48.6832 27.1266C50.3777 32.2058 55.9564 32.625 58.9398 29.8022L57.4637 28.9103C56.5049 28.344 56.5183 27.4476 57.4994 26.917L64.679 23.0195C65.6556 22.4888 66.4628 22.9615 66.4628 24.0763V32.1924C66.4628 33.3073 65.6868 33.7532 64.7236 33.1913L63.1807 32.2682C59.8673 37.9138 48.9106 39.3453 43.6262 30.3462C43.6574 30.3552 42.5559 28.8836 44.0543 28.0407Z" fill="#EA1B3D"/>
<path d="M88.0642 56.0411C87.5543 56.2513 87.0054 56.3502 86.4543 56.331C84.7285 56.331 83.4353 55.2429 83.4353 53.2406C83.4109 52.8147 83.4766 52.3885 83.6279 51.9896C83.7793 51.5908 84.013 51.2283 84.3138 50.9258C84.6147 50.6233 84.9758 50.3875 85.3738 50.234C85.7718 50.0804 86.1977 50.0123 86.6238 50.0343C87.1214 50.0115 87.6176 50.1046 88.0731 50.3064L87.8858 50.9485C87.4982 50.7726 87.0761 50.6857 86.6505 50.6943C85.2191 50.6943 84.2692 51.6085 84.2692 53.2139C84.2692 54.7078 85.1299 55.671 86.6149 55.671C87.0574 55.6764 87.4963 55.5898 87.9036 55.4168L88.0642 56.0411Z" fill="black"/>
<path d="M91.7744 50.2127C92.2734 50.125 92.7794 50.0833 93.2861 50.0878C93.9228 50.019 94.5615 50.1979 95.0699 50.5873C95.2277 50.7352 95.352 50.9152 95.4343 51.1152C95.5166 51.3152 95.5551 51.5306 95.547 51.7467C95.5514 52.0962 95.4413 52.4374 95.2336 52.7184C95.0258 52.9995 94.7319 53.2048 94.3965 53.3031V53.3298C94.6404 53.4394 94.8512 53.6113 95.0077 53.8281C95.1643 54.0449 95.2611 54.2991 95.2884 54.5651C95.397 55.1366 95.5552 55.6977 95.7611 56.2418H94.9405C94.7594 55.7697 94.6235 55.2814 94.5347 54.7836C94.3519 53.9408 94.0264 53.6197 93.3084 53.5929H92.5681V56.2418H91.7744V50.2127ZM92.5637 52.9954H93.3664C94.2137 52.9954 94.7443 52.5494 94.7443 51.8359C94.7443 51.0466 94.1735 50.7032 93.3396 50.6943C93.0791 50.6869 92.8185 50.7109 92.5637 50.7657V52.9954Z" fill="black"/>
<path d="M102.522 53.3789H100.158V55.5774H102.802V56.2418H99.3687V50.1324H102.669V50.7924H100.158V52.7234H102.522V53.3789Z" fill="black"/>
<path d="M107.534 54.3288L106.901 56.2508H106.089L108.167 50.1414H109.117L111.204 56.2508H110.361L109.701 54.3288H107.534ZM109.541 53.7134L108.939 51.9519C108.805 51.555 108.716 51.1938 108.622 50.8371C108.533 51.2027 108.435 51.5729 108.314 51.943L107.717 53.7268L109.541 53.7134Z" fill="black"/>
<path d="M115.275 50.8014H113.42V50.1324H117.942V50.8014H116.074V56.2418H115.275V50.8014Z" fill="black"/>
<path d="M122.143 50.1324V56.2418H121.34V50.1324H122.143Z" fill="black"/>
<path d="M126.228 56.2418V50.1324H127.088L129.046 53.2228C129.453 53.8605 129.819 54.5233 130.143 55.2072C130.072 54.3912 130.049 53.6509 130.049 52.6966V50.1414H130.794V56.2507H129.996L128.056 53.1515C127.635 52.4938 127.254 51.8118 126.914 51.1091H126.888C126.932 51.8805 126.95 52.6163 126.95 53.6286V56.2418H126.228Z" fill="black"/>
<path d="M139.561 55.9698C138.958 56.1841 138.324 56.2971 137.684 56.3042C137.268 56.3426 136.848 56.2895 136.455 56.1488C136.062 56.0081 135.704 55.7831 135.406 55.4896C135.109 55.1961 134.879 54.8411 134.734 54.4495C134.588 54.058 134.529 53.6393 134.562 53.2228C134.562 51.3989 135.82 50.07 137.867 50.07C138.389 50.0561 138.909 50.1518 139.392 50.351L139.2 50.9931C138.778 50.81 138.322 50.7202 137.862 50.73C137.533 50.7045 137.203 50.7506 136.893 50.8651C136.584 50.9796 136.303 51.1598 136.07 51.3934C135.837 51.6269 135.657 51.9082 135.543 52.2178C135.429 52.5275 135.383 52.8582 135.41 53.1871C135.41 54.7345 136.342 55.6532 137.764 55.6532C138.123 55.6714 138.481 55.6152 138.817 55.4882V53.6687H137.572V53.031H139.588L139.561 55.9698Z" fill="black"/>
<path d="M90.2715 21.0349C89.6092 20.2805 88.8122 19.656 87.9214 19.1931C87.3336 18.8917 86.7082 18.6698 86.0619 18.5331C87.3044 18.0012 88.4144 17.2018 89.3128 16.192C90.4531 14.8441 91.0467 13.1177 90.9761 11.3535C91.0048 10.044 90.7316 8.74555 90.1779 7.55857C89.6669 6.508 88.9171 5.59167 87.9883 4.88294C87.0044 4.16168 85.8943 3.6308 84.7151 3.31769C83.3966 2.96242 82.036 2.78691 80.6705 2.79594H69.1964C69.1551 2.79593 69.1141 2.80415 69.0759 2.82012C69.0378 2.83608 69.0032 2.85948 68.9741 2.88894C68.9451 2.9184 68.9222 2.95334 68.9068 2.99173C68.8913 3.03012 68.8837 3.07119 68.8843 3.11256V36.072C68.8837 36.1133 68.8913 36.1544 68.9068 36.1928C68.9222 36.2312 68.9451 36.2661 68.9741 36.2956C69.0032 36.325 69.0378 36.3484 69.0759 36.3644C69.1141 36.3804 69.1551 36.3886 69.1964 36.3886H80.5099C82.0712 36.4021 83.6266 36.1949 85.1299 35.7732C86.4861 35.3935 87.7647 34.7776 88.907 33.9537C89.9794 33.1698 90.8618 32.1548 91.489 30.9838C92.1356 29.7224 92.4604 28.3207 92.4344 26.9034C92.4528 24.7514 91.689 22.6659 90.2849 21.0349H90.2715ZM85.1299 13.9979C84.8387 14.5646 84.4168 15.0537 83.8991 15.4249C83.3463 15.8172 82.7198 16.0933 82.0573 16.2366C81.3001 16.4024 80.527 16.4847 79.7518 16.4818H73.9814V7.34006H80.6928C82.3918 7.34006 83.6404 7.786 84.4119 8.67788C85.1896 9.5562 85.611 10.6934 85.5936 11.8664C85.6148 12.604 85.4556 13.3357 85.1299 13.9979ZM73.9814 21.0259H80.2736C82.365 21.0259 84.0373 21.4986 85.2503 22.4262C86.4632 23.3538 87.034 24.7049 87.034 26.5779C87.0839 27.519 86.8442 28.4528 86.3473 29.2535C85.8999 29.9083 85.3137 30.4565 84.6304 30.8589C83.9529 31.2588 83.2077 31.5309 82.4319 31.6616C81.7044 31.79 80.9677 31.8586 80.229 31.8667H73.9814V21.0259Z" fill="black"/>
<path d="M113.768 16.9545C112.84 15.7927 111.668 14.8488 110.334 14.1897C108.74 13.4431 106.993 13.0811 105.233 13.1328C103.626 13.112 102.032 13.4153 100.546 14.0247C99.1535 14.6045 97.8918 15.4583 96.8358 16.5353C95.786 17.6264 94.9576 18.9106 94.3965 20.3169C93.7957 21.8121 93.4928 23.4102 93.5046 25.0216C93.4932 26.6227 93.7681 28.2129 94.3162 29.7173C94.8299 31.1219 95.6199 32.4093 96.6396 33.5033C97.6804 34.6021 98.9417 35.4683 100.341 36.0452C101.885 36.6615 103.535 36.9647 105.197 36.9371C109.469 36.9371 112.841 35.3763 115.222 32.2993C115.248 32.2672 115.267 32.23 115.278 32.19C115.289 32.15 115.291 32.1083 115.284 32.0674C115.28 32.026 115.267 31.986 115.246 31.9499C115.226 31.9138 115.197 31.8824 115.164 31.8578L111.998 29.4364C111.965 29.4102 111.928 29.3907 111.888 29.3791C111.848 29.3674 111.806 29.3637 111.765 29.3683C111.723 29.3728 111.683 29.3855 111.647 29.4056C111.61 29.4257 111.578 29.4528 111.552 29.4854C110.827 30.3996 109.956 31.1876 108.974 31.8177C108.002 32.4053 106.882 32.7024 105.746 32.6739C104.835 32.6744 103.931 32.5237 103.07 32.2279C102.244 31.9491 101.474 31.5264 100.796 30.9793C100.147 30.448 99.6112 29.7912 99.2216 29.0484C98.8695 28.3779 98.67 27.6378 98.6374 26.8811H115.989C116.072 26.8811 116.151 26.8482 116.21 26.7897C116.268 26.7311 116.301 26.6518 116.301 26.569V25.084C116.302 23.6306 116.102 22.184 115.708 20.7851C115.322 19.392 114.663 18.0898 113.768 16.9545ZM105.139 17.115C106.043 17.0906 106.942 17.2421 107.788 17.561C108.498 17.8489 109.135 18.2888 109.657 18.8497C110.158 19.4033 110.539 20.0547 110.776 20.7628C111.007 21.4566 111.145 22.1778 111.186 22.9078H98.624C98.6681 22.2804 98.8189 21.6651 99.0699 21.0884C99.3876 20.3529 99.833 19.6795 100.385 19.0995C100.977 18.4902 101.679 17.9997 102.455 17.6546C103.301 17.2852 104.216 17.1012 105.139 17.115Z" fill="black"/>
<path d="M137.068 32.0674V20.8029C137.07 19.8128 136.881 18.8317 136.511 17.9132C136.124 16.9723 135.531 16.1298 134.776 15.4472C133.91 14.6859 132.898 14.1092 131.802 13.7526C130.423 13.3135 128.981 13.104 127.534 13.1328C125.911 13.1392 124.301 13.4196 122.772 13.9622C121.216 14.5042 119.788 15.3586 118.575 16.4729C118.546 16.5019 118.522 16.5366 118.506 16.5749C118.49 16.6132 118.482 16.6543 118.482 16.6958C118.482 16.7374 118.49 16.7785 118.506 16.8168C118.522 16.855 118.546 16.8897 118.575 16.9188L121.068 19.5454C121.121 19.6015 121.193 19.6359 121.269 19.6417C121.346 19.6474 121.422 19.6242 121.483 19.5766C121.857 19.3001 122.245 19.0013 122.651 18.6847C123.052 18.3779 123.486 18.1161 123.944 17.9043C124.458 17.6682 124.993 17.4801 125.541 17.3424C126.208 17.1844 126.893 17.1096 127.579 17.1195C128.339 17.1 129.096 17.2256 129.809 17.4896C130.378 17.7153 130.896 18.0553 131.329 18.4885C131.716 18.895 132.019 19.3739 132.221 19.8977C132.418 20.3948 132.52 20.9239 132.524 21.4585V22.0739H129.768C128.166 22.0661 126.566 22.2004 124.988 22.4752C123.604 22.7022 122.266 23.1541 121.028 23.813C119.934 24.396 119 25.2381 118.308 26.2657C117.717 27.2834 117.375 28.4265 117.311 29.6015C117.247 30.7765 117.461 31.95 117.938 33.0261C118.349 33.8728 118.943 34.6176 119.677 35.2068C120.436 35.8021 121.302 36.2471 122.228 36.5178C123.214 36.8066 124.237 36.9479 125.264 36.937C126.83 36.9716 128.385 36.6674 129.822 36.0452C130.993 35.4752 132.008 34.6288 132.779 33.5791C132.779 34.4219 132.841 35.2692 132.912 36.1076C132.919 36.1868 132.955 36.2607 133.014 36.3144C133.073 36.3681 133.149 36.3977 133.229 36.3974H136.953C136.996 36.3981 137.04 36.3893 137.08 36.3716C137.12 36.3539 137.155 36.3277 137.184 36.2949C137.215 36.2621 137.237 36.2232 137.251 36.1809C137.265 36.1386 137.27 36.0939 137.265 36.0496C137.202 35.4699 137.158 34.85 137.126 34.2034C137.095 33.5568 137.068 32.8388 137.068 32.0674ZM132.524 25.7885V26.8677C132.52 27.6025 132.415 28.3332 132.212 29.0394C132.007 29.7544 131.661 30.4214 131.195 31.0016C130.696 31.6094 130.067 32.0972 129.354 32.4286C128.473 32.8152 127.519 33.0025 126.558 32.9771C125.406 33.0383 124.262 32.7658 123.262 32.1922C122.495 31.6883 122.125 30.8544 122.125 29.7083C122.11 29.3559 122.167 29.0041 122.291 28.674C122.415 28.3438 122.604 28.0419 122.847 27.7864C123.403 27.2301 124.077 26.8064 124.818 26.5466C125.712 26.2334 126.641 26.0283 127.583 25.9357C128.591 25.8342 129.603 25.785 130.616 25.7885H132.524Z" fill="black"/>
<path d="M157.261 15.2198C156.495 14.503 155.582 13.9627 154.585 13.6367C153.569 13.3005 152.506 13.1304 151.437 13.1328C149.809 13.1012 148.2 13.4914 146.768 14.2655C145.825 14.7709 145.013 15.4884 144.395 16.3614V14.0069C144.396 13.9655 144.388 13.9244 144.373 13.886C144.357 13.8476 144.334 13.8127 144.305 13.7832C144.276 13.7538 144.242 13.7304 144.204 13.7144C144.165 13.6984 144.124 13.6902 144.083 13.6902H139.891C139.807 13.6902 139.727 13.7236 139.667 13.783C139.608 13.8423 139.575 13.9229 139.575 14.0069V36.0719C139.575 36.1559 139.608 36.2364 139.667 36.2958C139.727 36.3552 139.807 36.3886 139.891 36.3886H144.083C144.124 36.3886 144.165 36.3803 144.204 36.3644C144.242 36.3484 144.276 36.325 144.305 36.2956C144.334 36.2661 144.357 36.2312 144.373 36.1928C144.388 36.1544 144.396 36.1133 144.395 36.0719V24.7139C144.372 23.6281 144.523 22.5457 144.841 21.5076C145.093 20.6985 145.514 19.9522 146.076 19.318C146.581 18.7632 147.211 18.3367 147.914 18.0738C149.227 17.5801 150.668 17.5393 152.007 17.9579C152.563 18.1403 153.07 18.4451 153.492 18.8498C153.956 19.3189 154.312 19.8834 154.536 20.5042C154.818 21.3134 154.953 22.1669 154.933 23.0237V36.0719C154.933 36.1559 154.966 36.2364 155.026 36.2958C155.085 36.3552 155.165 36.3886 155.249 36.3886H159.441C159.525 36.3886 159.606 36.3552 159.665 36.2958C159.725 36.2364 159.758 36.1559 159.758 36.0719V21.8732C159.786 20.5381 159.556 19.2101 159.08 17.9623C158.682 16.926 158.061 15.9897 157.261 15.2198Z" fill="black"/>
<path d="M178.844 26.9569C178.513 26.2195 178.024 25.5635 177.413 25.0349C176.777 24.4936 176.053 24.0652 175.272 23.7685C174.428 23.4399 173.562 23.1702 172.681 22.9613L171.004 22.6358C170.392 22.5207 169.794 22.3398 169.221 22.0962C168.706 21.8844 168.233 21.5823 167.825 21.2043C167.648 21.0304 167.51 20.8216 167.419 20.5913C167.327 20.361 167.285 20.1141 167.294 19.8665C167.285 19.5434 167.368 19.2244 167.534 18.9471C167.7 18.6698 167.942 18.4457 168.231 18.3012C168.973 17.8936 169.81 17.6905 170.657 17.7126C171.534 17.6835 172.403 17.8865 173.176 18.3012C173.847 18.6808 174.44 19.183 174.924 19.7818C174.95 19.815 174.981 19.8429 175.018 19.8638C175.054 19.8847 175.094 19.8983 175.135 19.9037C175.177 19.9091 175.219 19.9062 175.259 19.8952C175.299 19.8842 175.337 19.8654 175.37 19.8397L178.63 17.3157C178.692 17.2678 178.735 17.1987 178.75 17.1214C178.765 17.0441 178.751 16.9641 178.71 16.8965C177.916 15.5827 176.72 14.56 175.299 13.9801C172.906 12.9995 170.255 12.8427 167.762 13.5341C166.756 13.8118 165.806 14.2614 164.953 14.863C164.126 15.4453 163.441 16.2076 162.951 17.0927C162.428 18.0615 162.165 19.1493 162.188 20.25C162.159 21.2175 162.363 22.1777 162.781 23.0505C163.161 23.7865 163.702 24.4268 164.364 24.9234C165.043 25.4242 165.795 25.8169 166.594 26.0873C167.41 26.3683 168.284 26.6225 169.198 26.8454C169.644 26.9346 170.193 27.0506 170.795 27.1888C171.366 27.3203 171.924 27.5024 172.463 27.7329C172.949 27.9404 173.389 28.2437 173.756 28.6247C173.926 28.8017 174.058 29.0118 174.143 29.242C174.228 29.4722 174.265 29.7175 174.251 29.9626C174.26 30.3395 174.142 30.7086 173.916 31.0105C173.669 31.3381 173.354 31.6088 172.993 31.8043C172.575 32.0331 172.124 32.1956 171.656 32.2859C171.147 32.3879 170.631 32.4402 170.113 32.442C169.081 32.4697 168.064 32.1987 167.183 31.6616C166.375 31.1525 165.627 30.5541 164.953 29.8778C164.895 29.8255 164.819 29.7965 164.741 29.7965C164.663 29.7965 164.588 29.8255 164.529 29.8778L161.386 32.4777C161.352 32.503 161.324 32.5348 161.303 32.5711C161.282 32.6075 161.269 32.6476 161.264 32.6893C161.259 32.7309 161.263 32.7731 161.274 32.8133C161.286 32.8536 161.306 32.8911 161.332 32.9236C162.285 34.324 163.614 35.4263 165.167 36.1031C166.746 36.6942 168.423 36.9772 170.108 36.9371C171.22 36.9373 172.329 36.8101 173.413 36.558C174.47 36.3215 175.476 35.8971 176.382 35.3049C177.257 34.7167 177.99 33.9413 178.527 33.0351C179.104 32.0151 179.392 30.8574 179.361 29.6861C179.385 28.7499 179.208 27.8196 178.844 26.9569Z" fill="black"/>
<path d="M4.78493 2.7915H0.316617C0.141754 2.7915 0 2.93325 0 3.10812V36.0675C0 36.2424 0.141754 36.3841 0.316617 36.3841H4.78493C4.95979 36.3841 5.10155 36.2424 5.10155 36.0675V3.10812C5.10155 2.93325 4.95979 2.7915 4.78493 2.7915Z" fill="black"/>
<path d="M25.9671 15.2198C25.2001 14.5049 24.2873 13.9648 23.2914 13.6367C22.2744 13.3005 21.2098 13.1303 20.1386 13.1328C18.5107 13.1012 16.9022 13.4914 15.4697 14.2655C14.5276 14.7697 13.7166 15.4875 13.1017 16.3614V14.0069C13.1017 13.9229 13.0684 13.8423 13.009 13.783C12.9496 13.7236 12.8691 13.6902 12.7851 13.6902H8.59327C8.5519 13.6902 8.51094 13.6984 8.47277 13.7144C8.4346 13.7304 8.39999 13.7538 8.37095 13.7832C8.3419 13.8127 8.319 13.8476 8.30358 13.886C8.28816 13.9244 8.28052 13.9655 8.28111 14.0069V36.0719C8.28052 36.1133 8.28816 36.1544 8.30358 36.1928C8.319 36.2312 8.3419 36.2661 8.37095 36.2956C8.39999 36.325 8.4346 36.3484 8.47277 36.3644C8.51094 36.3803 8.5519 36.3886 8.59327 36.3886H12.7851C12.8691 36.3886 12.9496 36.3552 13.009 36.2958C13.0684 36.2364 13.1017 36.1559 13.1017 36.0719V24.7139C13.0785 23.6281 13.229 22.5457 13.5477 21.5076C13.7978 20.6977 14.2191 19.951 14.7829 19.318C15.2862 18.7634 15.9145 18.3369 16.6157 18.0738C17.9293 17.5801 19.3701 17.5393 20.7094 17.9579C21.2664 18.1401 21.7753 18.4449 22.1989 18.8498C22.6614 19.32 23.0173 19.8842 23.2424 20.5042C23.5249 21.3134 23.6594 22.1669 23.6393 23.0237V36.0719C23.6393 36.1559 23.6726 36.2364 23.732 36.2958C23.7914 36.3552 23.8719 36.3886 23.9559 36.3886H28.1433C28.2272 36.3886 28.3078 36.3552 28.3671 36.2958C28.4265 36.2364 28.4599 36.1559 28.4599 36.0719V21.8732C28.4873 20.5385 28.2588 19.211 27.7865 17.9623C27.3865 16.9268 26.7656 15.9909 25.9671 15.2198Z" fill="black"/>
<path d="M44.5092 15.8129C45.0973 15.1802 45.7323 14.5929 46.4089 14.0559C46.6141 13.9043 46.3331 13.6902 46.1592 13.6902H38.333V8.93206C38.3287 8.25246 38.3674 7.57327 38.4489 6.89857C38.5027 6.39242 38.6622 5.90322 38.9172 5.46265C39.1476 5.08036 39.4815 4.77114 39.8804 4.57077C40.4231 4.33714 41.0114 4.22891 41.6017 4.25415C41.99 4.25277 42.3777 4.2826 42.7612 4.34334C43.1376 4.41141 43.5065 4.51595 43.8626 4.65549C43.9077 4.67234 43.956 4.67869 44.004 4.67406C44.0519 4.66942 44.0981 4.65392 44.1391 4.62874C44.1805 4.60436 44.2158 4.57076 44.2421 4.53054C44.2684 4.49032 44.285 4.44457 44.2907 4.39685L44.7367 0.673255C44.7477 0.597422 44.7301 0.520195 44.6872 0.456687C44.6443 0.393179 44.5792 0.347961 44.5048 0.329881C43.945 0.176764 43.3714 0.079667 42.7924 0.0400204C42.2662 0.00880465 41.7667 -0.0090332 41.3074 -0.0090332C38.4534 -0.0090332 36.4021 0.762443 35.2159 2.27864C34.0297 3.79483 33.4321 6.05575 33.4321 9.06138V13.6902H29.0351C28.9512 13.6902 28.8706 13.7236 28.8113 13.783C28.7519 13.8423 28.7185 13.9229 28.7185 14.0068V17.6368C28.7185 17.7208 28.7519 17.8013 28.8113 17.8607C28.8706 17.9201 28.9512 17.9534 29.0351 17.9534H33.4678V36.0719C33.4672 36.1133 33.4748 36.1544 33.4902 36.1928C33.5057 36.2311 33.5286 36.2661 33.5576 36.2956C33.5867 36.325 33.6213 36.3484 33.6594 36.3644C33.6976 36.3803 33.7386 36.3886 33.7799 36.3885H37.9718C38.0557 36.3885 38.1363 36.3552 38.1956 36.2958C38.255 36.2364 38.2884 36.1559 38.2884 36.0719V17.9534H42.6541C42.8637 17.9534 42.9707 17.9534 43.1001 17.7527C43.5247 17.0746 43.9956 16.4264 44.5092 15.8129Z" fill="black"/>
<path d="M47.8315 23.8577C48.0444 22.3327 48.7741 20.927 49.8987 19.8754C51.0234 18.8238 52.4749 18.19 54.0106 18.0799C55.5464 17.9697 57.0735 18.3899 58.3367 19.2703C59.5999 20.1506 60.5227 21.4378 60.951 22.9167C60.9643 22.9605 60.9866 23.001 61.0166 23.0356C61.0466 23.0702 61.0835 23.0981 61.125 23.1174C61.1657 23.1352 61.2098 23.1443 61.2543 23.1442C61.3008 23.145 61.3467 23.1343 61.3881 23.113L65.4015 21.191C65.4721 21.157 65.5275 21.0981 65.5572 21.0256C65.5868 20.9531 65.5886 20.8722 65.5621 20.7985C64.5803 18.0365 62.6031 15.7402 60.0174 14.3592C57.4317 12.9782 54.4237 12.612 51.5822 13.3321C48.7407 14.0523 46.2702 15.807 44.6544 18.2528C43.0385 20.6986 42.3936 23.6594 42.8459 26.5556C42.8538 26.6071 42.8742 26.6559 42.9054 26.6976C42.9366 26.7393 42.9777 26.7726 43.0249 26.7947C43.0721 26.8167 43.124 26.8268 43.176 26.824C43.228 26.8212 43.2785 26.8056 43.3231 26.7786L47.6799 24.1029C47.7225 24.0767 47.7584 24.0409 47.7848 23.9983C47.8111 23.9557 47.8271 23.9075 47.8315 23.8577Z" fill="black"/>
</g>
<defs>
<clipPath id="clip0">
<rect width="179.361" height="56.34" fill="white"/>
</clipPath>
</defs>
</svg>
